<?xml version="1.0" encoding="utf-8"?>
<svg id="master-artboard" viewBox="0 0 1863.862060546875 1141.93115234375" version="1.1" xmlns="http://www.w3.org/2000/svg" x="0px" y="0px" enable-background="new 0 0 1400 1100" width="1863.862060546875px" height="1141.93115234375px"><rect id="ee-background" x="0" y="0" width="1863.862060546875" height="1141.93115234375" style="fill: white; fill-opacity: 0; pointer-events: none;"/>
<path d="M 0 0 H 1400 V 1100 H 0 V 0 Z" fill="#FFE9B5" transform="matrix(0.42311409612724343, 0, 0, 0.5385087761136674, 630.1590853714902, 230.21978759765625)" style="fill: rgb(255, 255, 255);"/><g transform="matrix(-1, 0, 0, 1, 1839.1072615418739, 63.93702697753906)">
			<g>
				
				
				
			<path d="M 779.8178100585938 751.9569702148438 L 779.8178100585938 751.9569702148438" style="fill: rgb(10, 185, 230); fill-opacity: 1; stroke: rgb(0, 0, 0); stroke-opacity: 1; stroke-width: 0; paint-order: fill;"/><path d="M 783.7802734375 751.9569702148438 L 783.7802734375 751.9569702148438" style="fill: rgb(152, 152, 152); fill-opacity: 1; stroke: rgb(0, 0, 0); stroke-opacity: 1; stroke-width: 0; paint-order: fill;"/></g>
			
			
			
			
			
			
			
			
			
			
			
			<g transform="matrix(2.568126550503471, 0, 0, 2.568126550503471, -1442.9900915733572, -278.1856356031948)">
				<g>
					<g>
						<path fill="#FFFFFF" stroke="#000000" stroke-miterlimit="10" d="M841.1,295c0-3.2,0.5-6.3,1.5-8.8v-8h8.5&#10;&#9;&#9;&#9;&#9;&#9;&#9;&#9;c5.5,0,9.9,7.5,9.9,16.8s-4.5,16.8-9.9,16.8h-8.5v-8C841.7,301.3,841.1,298.3,841.1,295z"/>
						<path d="M 852.499975 295 A 9.9 16.799999 0 0 1 842.599976 311.799999 A 9.9 16.799999 0 0 1 832.699976 295 A 9.9 16.799999 0 0 1 842.599976 278.200001 A 9.9 16.799999 0 0 1 852.499975 295 Z" fill="#B4C0C8" style="fill: rgb(5, 88, 109);"/>
					</g>
					<g transform="matrix(1, 0, 0, 1, 0, 0)">
						<path fill="#91A4AD" d="M871.9,295c0,5.8-1,11.3-2.7,15.9v14.3H854c-9.8,0-17.8-13.5-17.8-30.2s8-30.2,17.8-30.2h15.2v14.3&#10;&#9;&#9;&#9;&#9;&#9;&#9;&#9;C870.9,283.8,871.9,289.2,871.9,295z" style="fill: rgb(10, 186, 230);"/>
						<path d="M 887.000011 295 A 17.799999 30.200001 0 0 1 869.200012 325.200001 A 17.799999 30.200001 0 0 1 851.400013 295 A 17.799999 30.200001 0 0 1 869.200012 264.799999 A 17.799999 30.200001 0 0 1 887.000011 295 Z" fill="#B4C0C8" style="fill: rgb(5, 88, 109);"/>
					</g>
				</g>
				<path fill="#CFDAE0" d="M993.3,252c0-41.2-33.4-74.6-74.6-74.6l0,0c-41.2,0-74.6,33.4-74.6,74.6v46.5h149.2V252z" style="fill: rgb(152, 152, 152);"/>
				<g>
					<path fill="#FFFFFF" d="M903.4,199.4c-2.7,0-5.1-1.8-5.8-4.5c-0.8-3.2,1.1-6.5,4.3-7.3c3.1-0.8,6.2-1.4,9.3-1.7&#10;&#9;&#9;&#9;&#9;&#9;&#9;c3.3-0.4,6.3,2,6.6,5.3c0.4,3.3-2,6.3-5.3,6.6c-2.6,0.3-5.2,0.8-7.7,1.4C904.4,199.4,903.9,199.4,903.4,199.4z"/>
				</g>
				<g>
					<path fill="#FFFFFF" d="M869.2,223.1c-1.2,0-2.4-0.4-3.5-1.1c-2.7-1.9-3.3-5.7-1.4-8.4c5.5-7.8,12.8-14.5,21.1-19.3&#10;&#9;&#9;&#9;&#9;&#9;&#9;c2.9-1.7,6.5-0.7,8.2,2.2c1.7,2.9,0.7,6.5-2.2,8.2c-6.8,3.9-12.8,9.4-17.3,15.8C872.9,222.2,871.1,223.1,869.2,223.1z"/>
				</g>
				<g transform="matrix(1, 0, 0, 1, 0, 0)">
					<path fill="#55707C" d="M933.9,225.2h-13.3v3.6c-7.9,4.6-13.2,13.1-13.2,22.9c0,9.8,5.3,18.3,13.2,22.9v3.6h13.3&#10;&#9;&#9;&#9;&#9;&#9;&#9;c14.6,0,26.5-11.9,26.5-26.5C960.4,237,948.5,225.2,933.9,225.2z" style="fill: rgb(5, 88, 109);"/>
					<path d="M 947 251.699997 A 26.5 26.5 0 0 1 920.5 278.199997 A 26.5 26.5 0 0 1 894 251.699997 A 26.5 26.5 0 0 1 920.5 225.199997 A 26.5 26.5 0 0 1 947 251.699997 Z" fill="#77919D" style="fill: rgb(10, 185, 230);"/>
					<g>
						<path fill="#55707C" d="M903.4,251.7c0-11.1,8.5-20.3,19.3-21.4c-0.7-0.1-1.4-0.1-2.2-0.1c-11.9,0-21.5,9.6-21.5,21.5&#10;&#9;&#9;&#9;&#9;&#9;&#9;&#9;c0,11.9,9.6,21.5,21.5,21.5c0.7,0,1.5,0,2.2-0.1C911.8,272,903.4,262.8,903.4,251.7z" style="fill: rgb(5, 88, 109);"/>
						<path fill="#FDD836" d="M942,251.7c0-11.1-8.5-20.3-19.3-21.4c-10.8,1.1-19.3,10.3-19.3,21.4c0,11.1,8.5,20.3,19.3,21.4&#10;&#9;&#9;&#9;&#9;&#9;&#9;&#9;C933.5,272,942,262.8,942,251.7z"/>
					<path d="M 853.2565307617188 251.23458862304688" style="fill: rgb(253, 216, 54); fill-opacity: 1; stroke: rgb(0, 0, 0); stroke-opacity: 1; stroke-width: 0; paint-order: fill;"/></g>
				</g>
				<g>
					<path fill="#55707C" d="M859.9,225.2h-13.3v3.6c-7.9,4.6-13.2,13.1-13.2,22.9c0,9.8,5.3,18.3,13.2,22.9v3.6h13.3&#10;&#9;&#9;&#9;&#9;&#9;&#9;c14.6,0,26.5-11.9,26.5-26.5C886.4,237,874.5,225.2,859.9,225.2z" style="fill: rgb(5, 88, 109);"/>
					<path d="M 873 251.699997 A 26.5 26.5 0 0 1 846.5 278.199997 A 26.5 26.5 0 0 1 820 251.699997 A 26.5 26.5 0 0 1 846.5 225.199997 A 26.5 26.5 0 0 1 873 251.699997 Z" fill="#77919D" style="fill: rgb(10, 185, 230);"/>
					<g>
						<path fill="#55707C" d="M829.4,251.7c0-11.1,8.5-20.3,19.3-21.4c-0.7-0.1-1.4-0.1-2.2-0.1c-11.9,0-21.5,9.6-21.5,21.5&#10;&#9;&#9;&#9;&#9;&#9;&#9;&#9;c0,11.9,9.6,21.5,21.5,21.5c0.7,0,1.5,0,2.2-0.1C837.8,272,829.4,262.8,829.4,251.7z" style="fill: rgb(5, 88, 109);"/>
						<path fill="#FDD836" d="M868,251.7c0-11.1-8.5-20.3-19.3-21.4c-10.8,1.1-19.3,10.3-19.3,21.4c0,11.1,8.5,20.3,19.3,21.4&#10;&#9;&#9;&#9;&#9;&#9;&#9;&#9;C859.5,272,868,262.8,868,251.7z" style="fill: rgb(253, 217, 54);"/>
					<path d="M 937.5530395507812 538.757568359375 L 937.5530395507812 538.757568359375" style="fill: rgb(253, 217, 54); fill-opacity: 1; stroke: rgb(0, 0, 0); stroke-opacity: 1; stroke-width: 0; paint-order: fill;"/><path d="M 902.86474609375 259.1175537109375" style="fill: rgb(5, 88, 109); fill-opacity: 1; stroke: rgb(0, 0, 0); stroke-opacity: 1; stroke-width: 0; paint-order: fill;"/></g>
				</g>
				<g>
					<path d="M 850.099976 242.699997 A 7.5 7.5 0 0 1 842.599976 250.199997 A 7.5 7.5 0 0 1 835.099976 242.699997 A 7.5 7.5 0 0 1 842.599976 235.199997 A 7.5 7.5 0 0 1 850.099976 242.699997 Z" fill="#FFFFFF"/>
					<path d="M 840.500024 255.300003 A 3.6 3.6 0 0 1 836.900024 258.900003 A 3.6 3.6 0 0 1 833.300025 255.300003 A 3.6 3.6 0 0 1 836.900024 251.700003 A 3.6 3.6 0 0 1 840.500024 255.300003 Z" fill="#FFFFFF"/>
				</g>
				<g>
					<path d="M 924.400024 242.699997 A 7.5 7.5 0 0 1 916.900024 250.199997 A 7.5 7.5 0 0 1 909.400024 242.699997 A 7.5 7.5 0 0 1 916.900024 235.199997 A 7.5 7.5 0 0 1 924.400024 242.699997 Z" fill="#FFFFFF"/>
					<path d="M 914.800012 255.300003 A 3.6 3.6 0 0 1 911.200012 258.900003 A 3.6 3.6 0 0 1 907.600012 255.300003 A 3.6 3.6 0 0 1 911.200012 251.700003 A 3.6 3.6 0 0 1 914.800012 255.300003 Z" fill="#FFFFFF"/>
				</g>
				<path fill="#77919D" d="M913,401.2L913,401.2c-44.3,0-80.3-36-80.3-80.3v-22.4h160.6v22.4C993.3,365.2,957.3,401.2,913,401.2z" style="fill: rgb(65, 69, 72);" transform="matrix(1.0000056032369011, -0.008846198593113381, 0.008846198593113381, 1.0000056032369011, -5.799715789217771, 7.705416233795802)"/>
				<g>
					<g>
						<path fill="#B4C0C8" d="M1001.7,295c0-5.8-1-11.3-2.7-15.9v-14.3h-15.2c-9.8,0-17.8,13.5-17.8,30.2s8,30.2,17.8,30.2h15.2&#10;&#9;&#9;&#9;&#9;&#9;&#9;&#9;v-14.3C1000.8,306.3,1001.7,300.8,1001.7,295z" style="fill: rgb(5, 88, 109);"/>
						<path d="M 1016.899975 295 A 17.799999 30.200001 0 0 1 999.099976 325.200001 A 17.799999 30.200001 0 0 1 981.299976 295 A 17.799999 30.200001 0 0 1 999.099976 264.799999 A 17.799999 30.200001 0 0 1 1016.899975 295 Z" fill="#CFDAE0" style="fill: rgb(10, 186, 230);"/>
					<path d="M 845.2266235351562 310.867919921875 C 845.2266235351562 310.867919921875 845.2266235351562 311.5864562988281 845.2266235351562 310.1493835449219" style="fill: rgb(10, 186, 230); fill-opacity: 1; stroke: rgb(0, 0, 0); stroke-opacity: 1; stroke-width: 0; paint-order: fill;"/><path d="M 874.35986328125 311.7998046875 L 874.35986328125 311.7998046875" style="fill: rgb(5, 88, 109); fill-opacity: 1; stroke: rgb(0, 0, 0); stroke-opacity: 1; stroke-width: 0; paint-order: fill;"/></g>
					<g>
						<path fill="#B4C0C8" d="M1012,295c0-3.2-0.5-6.3-1.5-8.8v-8h-8.5c-5.5,0-9.9,7.5-9.9,16.8c0,9.3,4.5,16.8,9.9,16.8h8.5v-8&#10;&#9;&#9;&#9;&#9;&#9;&#9;&#9;C1011.5,301.3,1012,298.3,1012,295z" style="fill: rgb(5, 88, 109);"/>
						<path d="M 1020.4 295 A 9.9 16.799999 0 0 1 1010.5 311.799999 A 9.9 16.799999 0 0 1 1000.6 295 A 9.9 16.799999 0 0 1 1010.5 278.200001 A 9.9 16.799999 0 0 1 1020.4 295 Z" fill="#CFDAE0" style="fill: rgb(10, 186, 230);"/>
					<path d="M 869.7881469726562 259.63836669921875 L 869.7881469726562 259.63836669921875" style="fill: rgb(225, 15, 0); fill-opacity: 1; stroke: rgb(0, 0, 0); stroke-opacity: 1; stroke-width: 0; paint-order: fill;"/></g>
				</g>
			<path d="M 938.6813354492188 364.533935546875 L 938.6813354492188 364.533935546875" style="fill: rgb(65, 69, 72); fill-opacity: 1; stroke: rgb(0, 0, 0); stroke-opacity: 1; stroke-width: 0; paint-order: fill;" transform="matrix(0.9834970235824584, 0.18092609941959376, -0.18092609941959376, 0.9834970235824584, 73.57106553002859, -155.0281243685558)"/></g>
			
			
			
			
			
		<path d="M 1012.0476684570312 295.6699523925781 L 1012.0476684570312 295.6699523925781" style="fill: rgb(65, 69, 72); fill-opacity: 1; stroke: rgb(0, 0, 0); stroke-opacity: 1; stroke-width: 0; paint-order: fill;"/><path d="M 1067.2027587890625 551.8518676757812" style="fill: rgb(225, 15, 0); fill-opacity: 1; stroke: rgb(0, 0, 0); stroke-opacity: 1; stroke-width: 0; paint-order: fill;"/><path d="M 1065.8182373046875 561.6382446289062 L 1065.8182373046875 561.6382446289062" style="fill: rgb(5, 88, 109); fill-opacity: 1; stroke: rgb(0, 0, 0); stroke-opacity: 1; stroke-width: 0; paint-order: fill;"/></g>
<path d="M 132 336.4137878417969" style="fill: rgb(10, 185, 230); fill-opacity: 1; stroke: rgb(0, 0, 0); stroke-opacity: 1; stroke-width: 0; paint-order: fill;"/><path d="M 1741.3765869140625 323.9425048828125" style="fill: rgb(255, 255, 255); fill-opacity: 1; stroke: rgb(0, 0, 0); stroke-opacity: 1; stroke-width: 0; paint-order: fill;"/></svg>