<?xml version="1.0" encoding="utf-8"?>
<svg id="master-artboard" viewBox="0 0 1863.862060546875 1141.93115234375" version="1.1" xmlns="http://www.w3.org/2000/svg" x="0px" y="0px" enable-background="new 0 0 1400 1100" width="1863.862060546875px" height="1141.93115234375px"><rect id="ee-background" x="0" y="0" width="1863.862060546875" height="1141.93115234375" style="fill: white; fill-opacity: 0; pointer-events: none;"/>
<path d="M 0 0 H 1400 V 1100 H 0 V 0 Z" fill="#FFE9B5" transform="matrix(1.3312617948256749, 0, 0, 1.3312617948256749, 3.1534459590911865, -156.69279553806282)" style="fill: rgb(255, 255, 255);"/><path fill="#F2CC8D" d="M314.2,1082c-14.3,0-26-11.7-26-26c0-7,2.8-13.3,7.2-18H190.3c-14.3,0-26-11.7-26-26s11.7-26,26-26h1019.5&#10;&#9;&#9;c14.3,0,26,11.7,26,26s-11.7,26-26,26h-142c4.5,4.7,7.2,11,7.2,18c0,14.3-11.7,26-26,26H314.2z" transform="matrix(1.000046730041504, 0.008157039061188696, -0.008157039061188696, 1.000046730041504, 424.20697549490205, 30.74239028403349)"/><path fill="#CAAA71" d="M1209.7,1001H190.3c-6.1,0-11,4.9-11,11l0,0c0,6.1,4.9,11,11,11h97.7h44h49.7c6.1,0,11,4.9,11,11&#10;&#9;&#9;c0,6.1-4.9,11-11,11H332h-17.7c-6.1,0-11,4.9-11,11c0,6.1,4.9,11,11,11H1049c6.1,0,11-4.9,11-11c0-6.1-4.9-11-11-11h-70.8&#10;&#9;&#9;c-6.1,0-11-4.9-11-11c0-6.1,4.9-11,11-11h75h18.8h137.8c6.1,0,11-4.9,11-11l0,0C1220.7,1006,1215.8,1001,1209.7,1001z" transform="matrix(1, 0, 0, 1, 421.25806929359555, 36.42953444731478)"/><path fill="#F2CC8D" d="M1086.2,1081.8c-14.3,0-26-11.7-26-26s11.7-26,26-26h35.9c14.3,0,26,11.7,26,26s-11.7,26-26,26H1086.2z" transform="matrix(1, 0, 0, 1, 1.3103449344634868, 41.931034207344055)"/><path fill="#CAAA71" d="M1122.1,1044.9h-35.9c-6.1,0-11,4.9-11,11l0,0c0,6.1,4.9,11,11,11h35.9c6.1,0,11-4.9,11-11l0,0&#10;&#9;&#9;C1133.1,1049.8,1128.2,1044.9,1122.1,1044.9z" transform="matrix(1, 0, 0, 1, 1.3103449344634868, 41.931034207344055)"/><path fill="#F2CC8D" d="M248,1081.8c-14.3,0-26-11.7-26-26s11.7-26,26-26h21.8c14.3,0,26,11.7,26,26s-11.7,26-26,26H248z" transform="matrix(1, 0, 0, 1, 377.2460958897459, 40.097202906103746)"/><path fill="#CAAA71" d="M269.8,1044.9H248c-6.1,0-11,4.9-11,11l0,0c0,6.1,4.9,11,11,11h21.8c6.1,0,11-4.9,11-11l0,0&#10;&#9;&#9;C280.8,1049.8,275.8,1044.9,269.8,1044.9z" transform="matrix(1, 0, 0, 1, 377.2460958897459, 36.42953719213904)"/><g transform="matrix(1, 0, 0, 1, 465.2700577509943, 23.592705518311334)">
			<g>
				<path fill="#CFDAE0" d="M770.6,756.4c0,4.6,3.7,8.3,8.3,8.3h0c4.6,0,8.3-3.7,8.3-8.3v-35.7h-16.5V756.4z" style="fill: rgb(152, 152, 152);"/>
				<path fill="#CFDAE0" d="M743.8,748.3c-1.2,4.4,1.4,8.9,5.8,10.1l0,0c4.4,1.2,8.9-1.4,10.1-5.8l9.3-34.5l-15.9-4.3L743.8,748.3z" style="fill: rgb(152, 152, 152);"/>
				<path fill="#CFDAE0" d="M814,748.3l-9.3-34.5l-15.9,4.3l9.3,34.5c1.2,4.4,5.7,7,10.1,5.8C812.6,757.2,815.2,752.7,814,748.3z" style="fill: rgb(152, 152, 152);"/>
			<path d="M 779.8178100585938 751.9569702148438 L 779.8178100585938 751.9569702148438" style="fill: rgb(10, 185, 230); fill-opacity: 1; stroke: rgb(0, 0, 0); stroke-opacity: 1; stroke-width: 0; paint-order: fill;"/><path d="M 783.7802734375 751.9569702148438 L 783.7802734375 751.9569702148438" style="fill: rgb(152, 152, 152); fill-opacity: 1; stroke: rgb(0, 0, 0); stroke-opacity: 1; stroke-width: 0; paint-order: fill;"/></g>
			<g>
				<path fill="#CFDAE0" d="M1078.2,756.4c0,4.6-3.7,8.3-8.3,8.3h0c-4.6,0-8.3-3.7-8.3-8.3v-35.7h16.5V756.4z" style="fill: rgb(152, 152, 152);"/>
				<path fill="#CFDAE0" d="M1105,748.3c1.2,4.4-1.4,8.9-5.8,10.1l0,0c-4.4,1.2-8.9-1.4-10.1-5.8l-9.3-34.5l15.9-4.3L1105,748.3z" style="fill: rgb(152, 152, 152);"/>
				<path fill="#CFDAE0" d="M1034.8,748.3l9.3-34.5l15.9,4.3l-9.3,34.5c-1.2,4.4-5.7,7-10.1,5.8&#10;&#9;&#9;&#9;&#9;&#9;C1036.2,757.2,1033.6,752.7,1034.8,748.3z" style="fill: rgb(152, 152, 152);"/>
			</g>
			<path fill="#B4C0C8" d="M981.2,387.1c114.5,51.7,134.9,217.6,134.9,319.6h-92.3C1019.4,554.3,1028.8,441.8,981.2,387.1z" style="fill: rgb(65, 69, 72);"/>
			<path fill="#55707C" d="M1035.7,706.7c2,17.2,16.5,30.5,34.2,30.5c17.7,0,32.3-13.3,34.2-30.5H1035.7z" style="fill: rgb(5, 88, 109);"/>
			<path d="M 1096.099976 556.299988 A 35 35 0 0 1 1061.099976 591.299988 A 35 35 0 0 1 1026.099976 556.299988 A 35 35 0 0 1 1061.099976 521.299988 A 35 35 0 0 1 1096.099976 556.299988 Z" fill="#91A8B3" style="fill: rgb(10, 186, 230);"/>
			<path fill="#5F808E" d="M1061.1,578.3c12.1,0,22-9.9,22-22s-9.9-22-22-22s-22,9.9-22,22S1049,578.3,1061.1,578.3z" style="fill: rgb(5, 88, 109);"/>
			<path fill="#B4C0C8" d="M867.6,387.1c-114.5,51.7-134.9,217.6-134.9,319.6H825C829.4,554.3,820,441.8,867.6,387.1z" style="fill: rgb(65, 69, 72);"/>
			<path fill="#55707C" d="M744.7,706.7c2,17.2,16.5,30.5,34.2,30.5c17.7,0,32.3-13.3,34.2-30.5H744.7z" style="fill: rgb(5, 88, 109);"/>
			<path d="M 822.700012 556.299988 A 35 35 0 0 1 787.700012 591.299988 A 35 35 0 0 1 752.700012 556.299988 A 35 35 0 0 1 787.700012 521.299988 A 35 35 0 0 1 822.700012 556.299988 Z" fill="#91A8B3" style="fill: rgb(10, 186, 230);"/>
			<path fill="#5F808E" d="M787.7,578.3c-12.1,0-22-9.9-22-22s9.9-22,22-22s22,9.9,22,22S799.8,578.3,787.7,578.3z" style="fill: rgb(5, 88, 109);"/>
			<path fill="#CFDAE0" d="M1038.6,641H810.2V486.2c0-63.1,51.1-114.2,114.2-114.2h0c63.1,0,114.2,51.1,114.2,114.2V641z" transform="matrix(1, 0, 0, 1, 0, 0)" style="fill: rgb(152, 152, 152);"/>
			<path fill="#8EA3AE" d="M995.4,684.2h-142c-23.9,0-43.2-19.3-43.2-43.2l0,0h228.4l0,0C1038.6,664.9,1019.3,684.2,995.4,684.2z" style="fill: rgb(65, 69, 72);"/>
			<g transform="matrix(1, 0, 0, 1, 0, 0)">
				<g>
					<g>
						<path fill="#FFFFFF" stroke="#000000" stroke-miterlimit="10" d="M841.1,295c0-3.2,0.5-6.3,1.5-8.8v-8h8.5&#10;&#9;&#9;&#9;&#9;&#9;&#9;&#9;c5.5,0,9.9,7.5,9.9,16.8s-4.5,16.8-9.9,16.8h-8.5v-8C841.7,301.3,841.1,298.3,841.1,295z"/>
						<path d="M 852.499975 295 A 9.9 16.799999 0 0 1 842.599976 311.799999 A 9.9 16.799999 0 0 1 832.699976 295 A 9.9 16.799999 0 0 1 842.599976 278.200001 A 9.9 16.799999 0 0 1 852.499975 295 Z" fill="#B4C0C8" style="fill: rgb(5, 88, 109);"/>
					</g>
					<g transform="matrix(1, 0, 0, 1, 0, 0)">
						<path fill="#91A4AD" d="M871.9,295c0,5.8-1,11.3-2.7,15.9v14.3H854c-9.8,0-17.8-13.5-17.8-30.2s8-30.2,17.8-30.2h15.2v14.3&#10;&#9;&#9;&#9;&#9;&#9;&#9;&#9;C870.9,283.8,871.9,289.2,871.9,295z" style="fill: rgb(10, 186, 230);"/>
						<path d="M 887.000011 295 A 17.799999 30.200001 0 0 1 869.200012 325.200001 A 17.799999 30.200001 0 0 1 851.400013 295 A 17.799999 30.200001 0 0 1 869.200012 264.799999 A 17.799999 30.200001 0 0 1 887.000011 295 Z" fill="#B4C0C8" style="fill: rgb(5, 88, 109);"/>
					</g>
				</g>
				<path fill="#CFDAE0" d="M993.3,252c0-41.2-33.4-74.6-74.6-74.6l0,0c-41.2,0-74.6,33.4-74.6,74.6v46.5h149.2V252z" style="fill: rgb(152, 152, 152);"/>
				<g>
					<path fill="#FFFFFF" d="M903.4,199.4c-2.7,0-5.1-1.8-5.8-4.5c-0.8-3.2,1.1-6.5,4.3-7.3c3.1-0.8,6.2-1.4,9.3-1.7&#10;&#9;&#9;&#9;&#9;&#9;&#9;c3.3-0.4,6.3,2,6.6,5.3c0.4,3.3-2,6.3-5.3,6.6c-2.6,0.3-5.2,0.8-7.7,1.4C904.4,199.4,903.9,199.4,903.4,199.4z"/>
				</g>
				<g>
					<path fill="#FFFFFF" d="M869.2,223.1c-1.2,0-2.4-0.4-3.5-1.1c-2.7-1.9-3.3-5.7-1.4-8.4c5.5-7.8,12.8-14.5,21.1-19.3&#10;&#9;&#9;&#9;&#9;&#9;&#9;c2.9-1.7,6.5-0.7,8.2,2.2c1.7,2.9,0.7,6.5-2.2,8.2c-6.8,3.9-12.8,9.4-17.3,15.8C872.9,222.2,871.1,223.1,869.2,223.1z"/>
				</g>
				<g transform="matrix(1, 0, 0, 1, 0, 0)">
					<path fill="#55707C" d="M933.9,225.2h-13.3v3.6c-7.9,4.6-13.2,13.1-13.2,22.9c0,9.8,5.3,18.3,13.2,22.9v3.6h13.3&#10;&#9;&#9;&#9;&#9;&#9;&#9;c14.6,0,26.5-11.9,26.5-26.5C960.4,237,948.5,225.2,933.9,225.2z" style="fill: rgb(5, 88, 109);"/>
					<path d="M 947 251.699997 A 26.5 26.5 0 0 1 920.5 278.199997 A 26.5 26.5 0 0 1 894 251.699997 A 26.5 26.5 0 0 1 920.5 225.199997 A 26.5 26.5 0 0 1 947 251.699997 Z" fill="#77919D" style="fill: rgb(10, 185, 230);"/>
					<g>
						<path fill="#55707C" d="M903.4,251.7c0-11.1,8.5-20.3,19.3-21.4c-0.7-0.1-1.4-0.1-2.2-0.1c-11.9,0-21.5,9.6-21.5,21.5&#10;&#9;&#9;&#9;&#9;&#9;&#9;&#9;c0,11.9,9.6,21.5,21.5,21.5c0.7,0,1.5,0,2.2-0.1C911.8,272,903.4,262.8,903.4,251.7z" style="fill: rgb(5, 88, 109);"/>
						<path fill="#FDD836" d="M942,251.7c0-11.1-8.5-20.3-19.3-21.4c-10.8,1.1-19.3,10.3-19.3,21.4c0,11.1,8.5,20.3,19.3,21.4&#10;&#9;&#9;&#9;&#9;&#9;&#9;&#9;C933.5,272,942,262.8,942,251.7z"/>
					<path d="M 853.2565307617188 251.23458862304688" style="fill: rgb(253, 216, 54); fill-opacity: 1; stroke: rgb(0, 0, 0); stroke-opacity: 1; stroke-width: 0; paint-order: fill;"/></g>
				</g>
				<g>
					<path fill="#55707C" d="M859.9,225.2h-13.3v3.6c-7.9,4.6-13.2,13.1-13.2,22.9c0,9.8,5.3,18.3,13.2,22.9v3.6h13.3&#10;&#9;&#9;&#9;&#9;&#9;&#9;c14.6,0,26.5-11.9,26.5-26.5C886.4,237,874.5,225.2,859.9,225.2z" style="fill: rgb(5, 88, 109);"/>
					<path d="M 873 251.699997 A 26.5 26.5 0 0 1 846.5 278.199997 A 26.5 26.5 0 0 1 820 251.699997 A 26.5 26.5 0 0 1 846.5 225.199997 A 26.5 26.5 0 0 1 873 251.699997 Z" fill="#77919D" style="fill: rgb(10, 185, 230);"/>
					<g>
						<path fill="#55707C" d="M829.4,251.7c0-11.1,8.5-20.3,19.3-21.4c-0.7-0.1-1.4-0.1-2.2-0.1c-11.9,0-21.5,9.6-21.5,21.5&#10;&#9;&#9;&#9;&#9;&#9;&#9;&#9;c0,11.9,9.6,21.5,21.5,21.5c0.7,0,1.5,0,2.2-0.1C837.8,272,829.4,262.8,829.4,251.7z" style="fill: rgb(5, 88, 109);"/>
						<path fill="#FDD836" d="M868,251.7c0-11.1-8.5-20.3-19.3-21.4c-10.8,1.1-19.3,10.3-19.3,21.4c0,11.1,8.5,20.3,19.3,21.4&#10;&#9;&#9;&#9;&#9;&#9;&#9;&#9;C859.5,272,868,262.8,868,251.7z" style="fill: rgb(253, 217, 54);"/>
					<path d="M 937.5530395507812 538.757568359375 L 937.5530395507812 538.757568359375" style="fill: rgb(253, 217, 54); fill-opacity: 1; stroke: rgb(0, 0, 0); stroke-opacity: 1; stroke-width: 0; paint-order: fill;"/><path d="M 902.86474609375 259.1175537109375" style="fill: rgb(5, 88, 109); fill-opacity: 1; stroke: rgb(0, 0, 0); stroke-opacity: 1; stroke-width: 0; paint-order: fill;"/></g>
				</g>
				<g>
					<path d="M 850.099976 242.699997 A 7.5 7.5 0 0 1 842.599976 250.199997 A 7.5 7.5 0 0 1 835.099976 242.699997 A 7.5 7.5 0 0 1 842.599976 235.199997 A 7.5 7.5 0 0 1 850.099976 242.699997 Z" fill="#FFFFFF"/>
					<path d="M 840.500024 255.300003 A 3.6 3.6 0 0 1 836.900024 258.900003 A 3.6 3.6 0 0 1 833.300025 255.300003 A 3.6 3.6 0 0 1 836.900024 251.700003 A 3.6 3.6 0 0 1 840.500024 255.300003 Z" fill="#FFFFFF"/>
				</g>
				<g>
					<path d="M 924.400024 242.699997 A 7.5 7.5 0 0 1 916.900024 250.199997 A 7.5 7.5 0 0 1 909.400024 242.699997 A 7.5 7.5 0 0 1 916.900024 235.199997 A 7.5 7.5 0 0 1 924.400024 242.699997 Z" fill="#FFFFFF"/>
					<path d="M 914.800012 255.300003 A 3.6 3.6 0 0 1 911.200012 258.900003 A 3.6 3.6 0 0 1 907.600012 255.300003 A 3.6 3.6 0 0 1 911.200012 251.700003 A 3.6 3.6 0 0 1 914.800012 255.300003 Z" fill="#FFFFFF"/>
				</g>
				<path fill="#77919D" d="M913,401.2L913,401.2c-44.3,0-80.3-36-80.3-80.3v-22.4h160.6v22.4C993.3,365.2,957.3,401.2,913,401.2z" style="fill: rgb(65, 69, 72);" transform="matrix(0.9757496714591979, -0.21898108720779413, 0.21898108720779413, 0.9757496714591979, -44.354956045898916, 228.20661684238178)"/>
				<g>
					<g>
						<path fill="#B4C0C8" d="M1001.7,295c0-5.8-1-11.3-2.7-15.9v-14.3h-15.2c-9.8,0-17.8,13.5-17.8,30.2s8,30.2,17.8,30.2h15.2&#10;&#9;&#9;&#9;&#9;&#9;&#9;&#9;v-14.3C1000.8,306.3,1001.7,300.8,1001.7,295z" style="fill: rgb(5, 88, 109);"/>
						<path d="M 1016.899975 295 A 17.799999 30.200001 0 0 1 999.099976 325.200001 A 17.799999 30.200001 0 0 1 981.299976 295 A 17.799999 30.200001 0 0 1 999.099976 264.799999 A 17.799999 30.200001 0 0 1 1016.899975 295 Z" fill="#CFDAE0" style="fill: rgb(10, 186, 230);"/>
					<path d="M 845.2266235351562 310.867919921875 C 845.2266235351562 310.867919921875 845.2266235351562 311.5864562988281 845.2266235351562 310.1493835449219" style="fill: rgb(10, 186, 230); fill-opacity: 1; stroke: rgb(0, 0, 0); stroke-opacity: 1; stroke-width: 0; paint-order: fill;"/><path d="M 874.35986328125 311.7998046875 L 874.35986328125 311.7998046875" style="fill: rgb(5, 88, 109); fill-opacity: 1; stroke: rgb(0, 0, 0); stroke-opacity: 1; stroke-width: 0; paint-order: fill;"/></g>
					<g>
						<path fill="#B4C0C8" d="M1012,295c0-3.2-0.5-6.3-1.5-8.8v-8h-8.5c-5.5,0-9.9,7.5-9.9,16.8c0,9.3,4.5,16.8,9.9,16.8h8.5v-8&#10;&#9;&#9;&#9;&#9;&#9;&#9;&#9;C1011.5,301.3,1012,298.3,1012,295z" style="fill: rgb(5, 88, 109);"/>
						<path d="M 1020.4 295 A 9.9 16.799999 0 0 1 1010.5 311.799999 A 9.9 16.799999 0 0 1 1000.6 295 A 9.9 16.799999 0 0 1 1010.5 278.200001 A 9.9 16.799999 0 0 1 1020.4 295 Z" fill="#CFDAE0" style="fill: rgb(10, 186, 230);"/>
					<path d="M 869.7881469726562 259.63836669921875 L 869.7881469726562 259.63836669921875" style="fill: rgb(225, 15, 0); fill-opacity: 1; stroke: rgb(0, 0, 0); stroke-opacity: 1; stroke-width: 0; paint-order: fill;"/></g>
				</g>
			<path d="M 938.6813354492188 364.533935546875 L 938.6813354492188 364.533935546875" style="fill: rgb(65, 69, 72); fill-opacity: 1; stroke: rgb(0, 0, 0); stroke-opacity: 1; stroke-width: 0; paint-order: fill;" transform="matrix(0.9834970235824584, 0.18092609941959376, -0.18092609941959376, 0.9834970235824584, 73.57106553002859, -155.0281243685558)"/></g>
			<g>
				<path d="M 851.400024 662.599976 H 889.400024 V 1000.999969 H 851.400024 V 662.599976 Z" fill="#8EA3AE" style="fill: rgb(65, 69, 72);"/>
				<path d="M 959.400024 662.599976 H 997.400024 V 1000.999969 H 959.400024 V 662.599976 Z" fill="#8EA3AE" style="fill: rgb(65, 69, 72);"/>
			</g>
			<g>
				<path fill="#8EA3AE" d="M924.4,454.7c-36.8,0-66.7,29.8-66.7,66.7h66.7V454.7z" style="fill: rgb(5, 88, 109);"/>
				<path fill="#B4C0C8" d="M857.7,521.3c0,36.8,29.8,66.7,66.7,66.7v-66.7H857.7z" style="fill: rgb(10, 185, 230);"/>
				<path fill="#B4C0C8" d="M924.4,454.7v66.7h66.7C991.1,484.5,961.2,454.7,924.4,454.7z" style="fill: rgb(10, 185, 230);"/>
				<path fill="#8EA3AE" d="M924.4,588c36.8,0,66.7-29.8,66.7-66.7h-66.7V588z" style="fill: rgb(5, 88, 109);"/>
			<path d="M 888.7561645507812 558.86474609375 L 888.7561645507812 558.86474609375" style="fill: rgb(10, 185, 230); fill-opacity: 1; stroke: rgb(0, 0, 0); stroke-opacity: 1; stroke-width: 0; paint-order: fill;"/><path d="M 879.0801391601562 493.8420104980469 C 879.0801391601562 493.8420104980469 879.0801391601562 494.2290344238281 879.0801391601562 493.8420104980469" style="fill: rgb(10, 185, 230); fill-opacity: 1; stroke: rgb(0, 0, 0); stroke-opacity: 1; stroke-width: 0; paint-order: fill;"/></g>
			<path fill="#FDD836" d="M924.4,565c-24.1,0-43.7-19.6-43.7-43.7c0-24.1,19.6-43.7,43.7-43.7c24.1,0,43.7,19.6,43.7,43.7&#10;&#9;&#9;&#9;&#9;C968.1,545.4,948.5,565,924.4,565z" transform="matrix(1, 0, 0, 1, 0, -1.3103448114270293)" style="fill: rgb(253, 217, 54);"/>
			<path d="M 927.900013 503.700012 A 17.700001 17.700001 0 0 1 910.200012 521.400013 A 17.700001 17.700001 0 0 1 892.500011 503.700012 A 17.700001 17.700001 0 0 1 910.200012 486.000011 A 17.700001 17.700001 0 0 1 927.900013 503.700012 Z" fill="#FFFFFF"/>
			<path d="M 904 527.900024 A 6.5 6.5 0 0 1 897.5 534.400024 A 6.5 6.5 0 0 1 891 527.900024 A 6.5 6.5 0 0 1 897.5 521.400024 A 6.5 6.5 0 0 1 904 527.900024 Z" fill="#FFFFFF"/>
		<path d="M 1012.0476684570312 295.6699523925781 L 1012.0476684570312 295.6699523925781" style="fill: rgb(65, 69, 72); fill-opacity: 1; stroke: rgb(0, 0, 0); stroke-opacity: 1; stroke-width: 0; paint-order: fill;"/><path d="M 1067.2027587890625 551.8518676757812" style="fill: rgb(225, 15, 0); fill-opacity: 1; stroke: rgb(0, 0, 0); stroke-opacity: 1; stroke-width: 0; paint-order: fill;"/><path d="M 1065.8182373046875 561.6382446289062 L 1065.8182373046875 561.6382446289062" style="fill: rgb(5, 88, 109); fill-opacity: 1; stroke: rgb(0, 0, 0); stroke-opacity: 1; stroke-width: 0; paint-order: fill;"/></g>
<path d="M 132 336.4137878417969" style="fill: rgb(10, 185, 230); fill-opacity: 1; stroke: rgb(0, 0, 0); stroke-opacity: 1; stroke-width: 0; paint-order: fill;"/><path d="M 1741.3765869140625 323.9425048828125" style="fill: rgb(255, 255, 255); fill-opacity: 1; stroke: rgb(0, 0, 0); stroke-opacity: 1; stroke-width: 0; paint-order: fill;"/></svg>